<svg xmlns="http://www.w3.org/2000/svg" width="32" height="32" fill="none" viewBox="0 0 32 32">
  <g clip-path="url(#a)">
    <path fill="#00eb5b" d="M0 0h32v32H0z" />
    <path
      fill="#002b11"
      d="M11.685 17.336a2.34 2.34 0 1 1-4.679 0 2.34 2.34 0 0 1 4.68 0m10.847-2.34a2.34 2.34 0 1 0-.002 4.679 2.34 2.34 0 0 0 .003-4.677zm6.596 2.34a6.595 6.595 0 0 1-11.075 4.839l-2.111 2.296-2.112-2.3a6.594 6.594 0 1 1-8.922-9.708L2.75 10.118h4.793a14.94 14.94 0 0 1 16.81 0h4.78l-2.157 2.347a6.57 6.57 0 0 1 2.152 4.872m-15.319 0a4.462 4.462 0 1 0-8.924 0 4.462 4.462 0 0 0 8.924.001m7.083-6.66a12.87 12.87 0 0 0-9.902 0c2.816 1.077 4.952 3.596 4.952 6.532 0-2.936 2.135-5.455 4.95-6.533m6.102 6.66a4.462 4.462 0 1 0-8.923 0 4.462 4.462 0 0 0 8.923 0"
    />
  </g>
  <defs>
    <clipPath id="a"><path fill="#fff" d="M0 0h32v32H0z" /></clipPath>
  </defs>
</svg>
